#tb 0: 1/1000
0,          0,          0,        0,     1734, 1bb98ba89abf6b86f47a851f8126e1ff
0,         33,         33,        0,     1734, b960cc795c179afe7eec360c57fddd7f
0,         66,         66,        0,     1734, a93cd094a80c542ecb7b6ac7720c5eff
0,        100,        100,        0,     1734, f1cd34e4f0bf9b1238769f028708b742
0,        133,        133,        0,     1734, f01437ad14450d2136a8fc971f180eb7
0,        166,        166,        0,     1734, 8778230f1182c2227bf1e253bd85df4c
0,        200,        200,        0,     1734, 1d1d5cf6c5cc9e73a1fa5b882e441d74
0,        233,        233,        0,     1734, 2f7a1867487c56c252e35225f71adb55
0,        266,        266,        0,     1734, 1d1aea21f70ceed596f22ec32d8712ee
0,        300,        300,        0,     1734, 260e66df92f32bc853f4cd4ede692ea4
